<svg width="16" height="17" viewBox="0 0 16 17" fill="none" xmlns="http://www.w3.org/2000/svg">
<path d="M11.6334 15.6667C10.88 15.6667 10.0867 15.4867 9.26671 15.14C8.46671 14.8 7.66004 14.3334 6.87337 13.7667C6.09337 13.1934 5.34004 12.5534 4.62671 11.8534C3.92004 11.14 3.28004 10.3867 2.71337 9.61337C2.14004 8.81337 1.68004 8.01337 1.35337 7.24004C1.00671 6.41337 0.833374 5.61337 0.833374 4.86004C0.833374 4.34004 0.926707 3.84671 1.10671 3.38671C1.29337 2.91337 1.59337 2.47337 2.00004 2.09337C2.51337 1.58671 3.10004 1.33337 3.72671 1.33337C3.98671 1.33337 4.25337 1.39337 4.48004 1.50004C4.74004 1.62004 4.96004 1.80004 5.12004 2.04004L6.66671 4.22004C6.80671 4.41337 6.91337 4.60004 6.98671 4.78671C7.07337 4.98671 7.12004 5.18671 7.12004 5.38004C7.12004 5.63337 7.04671 5.88004 6.90671 6.11337C6.80671 6.29337 6.65337 6.48671 6.46004 6.68004L6.00671 7.15337C6.01337 7.17337 6.02004 7.18671 6.02671 7.20004C6.10671 7.34004 6.26671 7.58004 6.57337 7.94004C6.90004 8.31337 7.20671 8.65337 7.51337 8.96671C7.90671 9.35337 8.23337 9.66004 8.54004 9.91337C8.92004 10.2334 9.16671 10.3934 9.31337 10.4667L9.30004 10.5L9.78671 10.02C9.99337 9.81337 10.1934 9.66004 10.3867 9.56004C10.7534 9.33337 11.22 9.29337 11.6867 9.48671C11.86 9.56004 12.0467 9.66004 12.2467 9.80004L14.46 11.3734C14.7067 11.54 14.8867 11.7534 14.9934 12.0067C15.0934 12.26 15.14 12.4934 15.14 12.7267C15.14 13.0467 15.0667 13.3667 14.9267 13.6667C14.7867 13.9667 14.6134 14.2267 14.3934 14.4667C14.0134 14.8867 13.6 15.1867 13.12 15.38C12.66 15.5667 12.16 15.6667 11.6334 15.6667ZM3.72671 2.33337C3.36004 2.33337 3.02004 2.49337 2.69337 2.81337C2.38671 3.10004 2.17337 3.41337 2.04004 3.75337C1.90004 4.10004 1.83337 4.46671 1.83337 4.86004C1.83337 5.48004 1.98004 6.15337 2.27337 6.84671C2.57337 7.55337 2.99337 8.28671 3.52671 9.02004C4.06004 9.75337 4.66671 10.4667 5.33337 11.14C6.00004 11.8 6.72004 12.4134 7.46004 12.9534C8.18004 13.48 8.92004 13.9067 9.65337 14.2134C10.7934 14.7 11.86 14.8134 12.74 14.4467C13.08 14.3067 13.38 14.0934 13.6534 13.7867C13.8067 13.62 13.9267 13.44 14.0267 13.2267C14.1067 13.06 14.1467 12.8867 14.1467 12.7134C14.1467 12.6067 14.1267 12.5 14.0734 12.38C14.0534 12.34 14.0134 12.2667 13.8867 12.18L11.6734 10.6067C11.54 10.5134 11.42 10.4467 11.3067 10.4C11.16 10.34 11.1 10.28 10.8734 10.42C10.74 10.4867 10.62 10.5867 10.4867 10.72L9.98004 11.22C9.72004 11.4734 9.32004 11.5334 9.01337 11.42L8.83337 11.34C8.56004 11.1934 8.24004 10.9667 7.88671 10.6667C7.56671 10.3934 7.22004 10.0734 6.80004 9.66004C6.47337 9.32671 6.14671 8.97337 5.80671 8.58004C5.49337 8.21337 5.26671 7.90004 5.12671 7.64004L5.04671 7.44004C5.00671 7.28671 4.99337 7.20004 4.99337 7.10671C4.99337 6.86671 5.08004 6.65337 5.24671 6.48671L5.74671 5.96671C5.88004 5.83337 5.98004 5.70671 6.04671 5.59337C6.10004 5.50671 6.12004 5.43337 6.12004 5.36671C6.12004 5.31337 6.10004 5.23337 6.06671 5.15337C6.02004 5.04671 5.94671 4.92671 5.85337 4.80004L4.30671 2.61337C4.24004 2.52004 4.16004 2.45337 4.06004 2.40671C3.95337 2.36004 3.84004 2.33337 3.72671 2.33337ZM9.30004 10.5067L9.19337 10.96L9.37337 10.4934C9.34004 10.4867 9.31337 10.4934 9.30004 10.5067Z" fill="#292D32"/>
</svg>
